<?xml version="1.0" encoding="UTF-8" standalone="no"?>
<!-- Created with Inkscape (http://www.inkscape.org/) -->

<svg
   width="26.516357mm"
   height="16.34552mm"
   viewBox="0 0 26.516357 16.34552"
   version="1.1"
   id="svg5"
   xml:space="preserve"
   sodipodi:docname="eye.svg"
   inkscape:version="1.2.2 (732a01da63, 2022-12-09)"
   xmlns:inkscape="http://www.inkscape.org/namespaces/inkscape"
   xmlns:sodipodi="http://sodipodi.sourceforge.net/DTD/sodipodi-0.dtd"
   xmlns="http://www.w3.org/2000/svg"
   xmlns:svg="http://www.w3.org/2000/svg"><sodipodi:namedview
     id="namedview7"
     pagecolor="#ffffff"
     bordercolor="#000000"
     borderopacity="0.25"
     inkscape:showpageshadow="2"
     inkscape:pageopacity="0.0"
     inkscape:pagecheckerboard="0"
     inkscape:deskcolor="#d1d1d1"
     inkscape:document-units="mm"
     showgrid="false"
     inkscape:zoom="1.0997908"
     inkscape:cx="-4.0916873"
     inkscape:cy="88.198592"
     inkscape:window-width="1920"
     inkscape:window-height="1009"
     inkscape:window-x="-8"
     inkscape:window-y="-8"
     inkscape:window-maximized="1"
     inkscape:current-layer="layer1" /><defs
     id="defs2" /><g
     inkscape:label="Camada 1"
     inkscape:groupmode="layer"
     id="layer1"
     transform="translate(-223.71558,-134.63626)"><path
       style="fill:#d18bbd;stroke-width:0.0423333;fill-opacity:1"
       d="m 236.01207,150.95299 c -1.84889,-0.20842 -3.59404,-0.79349 -5.41722,-1.81615 -1.84073,-1.0325 -3.86693,-2.64393 -5.49028,-4.36639 -1.1572,-1.22786 -1.38999,-1.55727 -1.38899,-1.96555 9.7e-4,-0.39942 0.18479,-0.66323 1.29782,-1.86266 1.23953,-1.33574 2.82808,-2.68949 4.33117,-3.69099 2.14077,-1.42637 4.2218,-2.25937 6.39233,-2.55873 0.65662,-0.0906 2.10131,-0.0686 2.83182,0.0431 2.75449,0.42107 5.43603,1.76106 8.28068,4.13794 1.00343,1.09913 4.36057,3.20613 3.10533,4.75757 -0.70071,0.84227 -1.78037,1.94781 -2.66083,2.72461 -2.89578,2.55487 -5.77939,4.0588 -8.65716,4.51508 -0.62865,0.0997 -2.06926,0.14478 -2.62467,0.0822 z m 1.73567,-2.03134 c 2.52687,-0.23164 5.20395,-1.54344 7.95866,-3.89983 0.6319,-0.54053 2.2225,-2.12294 2.2225,-2.21105 0,-0.0787 -1.27918,-1.37626 -1.92217,-1.94977 -3.29383,-2.93793 -6.68024,-4.4123 -9.58765,-4.17428 -1.4089,0.11535 -2.62273,0.47354 -4.11118,1.21319 -1.89129,0.93983 -3.72226,2.32414 -5.55822,4.2023 l -0.66872,0.68409 0.0826,0.11513 c 0.13728,0.19134 1.73181,1.74406 2.20732,2.14946 3.29941,2.81294 6.50065,4.13441 9.37684,3.87076 z m -1.50284,-2.09198 c -1.31379,-0.27663 -2.39126,-1.13035 -2.94833,-2.33605 -0.26543,-0.57449 -0.3261,-0.88153 -0.32949,-1.66755 -0.003,-0.60378 0.0102,-0.74691 0.0945,-1.0555 0.5141,-1.88144 2.22345,-3.13035 4.15695,-3.03723 0.6076,0.0293 1.03415,0.13907 1.59334,0.41019 0.87255,0.42304 1.50327,1.06785 1.92519,1.96822 0.26034,0.55554 0.35138,0.99426 0.35138,1.69315 0,0.73296 -0.0957,1.16269 -0.39683,1.78113 -0.52415,1.07659 -1.39937,1.81172 -2.57141,2.15984 -0.3084,0.0916 -0.47813,0.11332 -0.98634,0.12619 -0.41348,0.0105 -0.70364,-0.003 -0.889,-0.0424 z m 1.19384,-2.01838 c 1.09968,-0.22933 1.83394,-1.35471 1.58242,-2.42536 -0.19862,-0.84549 -0.86851,-1.47189 -1.71406,-1.60276 -1.00379,-0.15538 -2.00675,0.5149 -2.2673,1.51521 -0.18549,0.71212 0.0421,1.49254 0.58058,1.99109 0.51676,0.47844 1.1521,0.66076 1.81836,0.52182 z"
       id="path289"
       sodipodi:nodetypes="ssssssscccssssssssssscsssscsccsssssssccssssss" /></g></svg>
