<?xml version="1.0" encoding="UTF-8" standalone="no"?>
<!-- Created with Inkscape (http://www.inkscape.org/) -->

<svg
   width="26.613342mm"
   height="18.838165mm"
   viewBox="0 0 26.613342 18.838165"
   version="1.1"
   id="svg5"
   xml:space="preserve"
   sodipodi:docname="eyeOff.svg"
   inkscape:version="1.2.2 (732a01da63, 2022-12-09)"
   xmlns:inkscape="http://www.inkscape.org/namespaces/inkscape"
   xmlns:sodipodi="http://sodipodi.sourceforge.net/DTD/sodipodi-0.dtd"
   xmlns="http://www.w3.org/2000/svg"
   xmlns:svg="http://www.w3.org/2000/svg"><sodipodi:namedview
     id="namedview7"
     pagecolor="#ffffff"
     bordercolor="#000000"
     borderopacity="0.25"
     inkscape:showpageshadow="2"
     inkscape:pageopacity="0.0"
     inkscape:pagecheckerboard="0"
     inkscape:deskcolor="#d1d1d1"
     inkscape:document-units="mm"
     showgrid="false"
     inkscape:zoom="0.36385507"
     inkscape:cx="-779.15638"
     inkscape:cy="420.49709"
     inkscape:window-width="1920"
     inkscape:window-height="1009"
     inkscape:window-x="-8"
     inkscape:window-y="-8"
     inkscape:window-maximized="1"
     inkscape:current-layer="layer1" /><defs
     id="defs2" /><g
     inkscape:label="Camada 1"
     inkscape:groupmode="layer"
     id="layer1"
     transform="translate(-263.63062,-132.09478)"><path
       d="m 268.22242,150.22228 -0.70752,-0.71008 8.70877,-8.7087 8.70878,-8.70871 0.71903,0.71996 0.71902,0.71996 -1.07719,1.07781 c -0.59246,0.5928 -1.06853,1.08489 -1.05795,1.09354 0.0106,0.009 0.2288,0.15534 0.48492,0.32597 1.59324,1.06151 3.47579,2.73012 4.82408,4.27586 0.55489,0.63615 0.6996,0.88571 0.6996,1.2065 0,0.31998 -0.14387,0.57214 -0.67625,1.18534 -1.5889,1.83007 -3.8038,3.71101 -5.73284,4.86843 -4.05777,2.43467 -7.75552,2.76651 -11.75209,1.05463 l -0.55954,-0.23968 -1.27574,1.27523 c -0.70165,0.70137 -1.28514,1.27495 -1.29664,1.27462 -0.0115,-3.4e-4 -0.3393,-0.32014 -0.72844,-0.71068 z m 9.99799,-2.65802 c 2.7277,-0.40464 5.72038,-2.12871 8.58926,-4.94824 0.45067,-0.44291 0.87687,-0.87767 0.94713,-0.96613 l 0.12774,-0.16084 -0.92596,-0.91977 c -1.29902,-1.29033 -2.23288,-2.06661 -3.52732,-2.93214 l -0.69636,-0.46562 -1.12983,1.12925 -1.12983,1.12925 0.14175,0.30135 c 0.45131,0.95943 0.52486,2.09564 0.19884,3.07197 -0.38531,1.15392 -1.32189,2.13154 -2.43301,2.53962 -0.55045,0.20217 -0.74919,0.23336 -1.47304,0.23119 -0.63623,-0.002 -0.73222,-0.0124 -1.07679,-0.11744 -0.20806,-0.0634 -0.51237,-0.1814 -0.67625,-0.26213 l -0.29796,-0.14679 -0.87714,0.87641 c -0.48243,0.48202 -0.86889,0.88976 -0.8588,0.9061 0.0257,0.0416 0.8986,0.35485 1.33726,0.47985 0.43804,0.12482 1.18668,0.26445 1.70943,0.31883 0.4903,0.051 1.48171,0.0197 2.05088,-0.0647 z m -0.78295,-4.06159 c 0.73597,-0.1917 1.35327,-0.83731 1.50655,-1.57568 0.0496,-0.23909 0.0371,-0.83184 -0.0187,-0.88769 -0.0286,-0.0286 -2.48119,2.39416 -2.48119,2.45109 0,0.085 0.68162,0.0935 0.99335,0.0123 z m -9.92568,2.28102 c -1.08047,-0.88169 -2.29307,-2.0452 -3.14126,-3.01407 -0.57843,-0.66074 -0.65763,-0.77852 -0.71804,-1.06781 -0.11189,-0.5358 0.16109,-0.91951 1.86664,-2.62385 1.35603,-1.35508 2.59298,-2.37852 3.89766,-3.22488 3.68112,-2.38797 7.15015,-3.06663 10.62085,-2.0778 l 0.22802,0.065 -0.84237,0.84237 -0.84237,0.84238 -0.42282,-0.0609 c -0.67981,-0.0979 -1.23002,-0.11821 -1.83919,-0.068 -2.7735,0.22864 -5.54715,1.6413 -8.57909,4.36943 -0.62672,0.56392 -1.7097,1.67159 -1.7097,1.74867 0,0.13797 1.62178,1.7137 2.56117,2.48847 0.2794,0.23043 0.58064,0.47921 0.66943,0.55284 l 0.16143,0.13386 -0.73293,0.72851 -0.73293,0.72851 z m 5.35772,-4.7138 c 0.23326,-1.66206 1.2827,-2.9425 2.82402,-3.44564 0.28642,-0.0935 0.91356,-0.21549 0.94519,-0.18387 0.008,0.008 -0.84346,0.87013 -1.89111,1.91687 l -1.90484,1.90314 z"
       style="fill:#507794;stroke-width:0.0423333;fill-opacity:1"
       id="path369" /></g></svg>
