<?xml version="1.0" encoding="UTF-8" standalone="no"?>
<!-- Created with Inkscape (http://www.inkscape.org/) -->

<svg
   width="179.75504mm"
   height="134.00491mm"
   viewBox="0 0 179.75504 134.00491"
   version="1.1"
   id="svg5"
   xml:space="preserve"
   xmlns="http://www.w3.org/2000/svg"
   xmlns:svg="http://www.w3.org/2000/svg"><defs
     id="defs2" /><g
     id="layer1"
     transform="translate(-280.20637,-55.194643)"><path
       style="fill:#000000;stroke:#ffffff;stroke-width:1.32292;stroke-dasharray:none"
       d="m 305.58932,187.57278 c -1.79104,-0.89251 -3.53614,-2.85488 -4.07715,-4.58477 -0.18834,-0.60222 -0.76994,-0.8453 -3.13513,-1.31033 -3.53204,-0.69445 -7.85503,-2.77145 -10.35361,-4.97444 -2.40689,-2.12215 -4.87154,-5.80201 -6.05149,-9.03519 l -0.96269,-2.63788 -0.10676,-14.45141 c -0.0909,-12.31012 -0.022,-14.83243 0.46532,-17.0228 1.90505,-8.56286 9.50053,-15.55177 17.98527,-16.54898 1.80897,-0.21261 1.94049,-0.29555 2.32729,-1.46758 0.22549,-0.68322 1.08372,-1.91596 1.90717,-2.73942 1.438,-1.438 1.5209,-1.6416 2.09653,-5.14878 0.72294,-4.40477 2.79171,-10.805343 4.75376,-14.707673 0.84466,-1.67994 1.43948,-3.36106 1.43948,-4.06837 0,-1.84879 1.2805,-5.57966 2.48639,-7.24434 1.78085,-2.4584 6.24943,-6.95243 9.65962,-9.71464 10.53496,-8.53319 22.23638,-13.64886 35.54828,-15.54112 4.8596,-0.69078 15.04636,-0.68134 20.06463,0.0186 12.87007,1.79507 25.21152,7.12672 35.26426,15.23457 1.46184,1.17902 4.29789,3.84639 6.30234,5.92747 4.11921,4.27672 5.5976,6.84589 5.91724,10.28307 0.13097,1.4084 0.66874,3.0432 1.71869,5.22476 2.03841,4.23539 3.60913,9.027763 4.52402,13.803113 l 0.75204,3.92534 1.5875,1.20631 c 1.00063,0.76037 1.91353,1.88303 2.46944,3.03685 0.71766,1.48956 1.04885,1.8315 1.77797,1.83571 1.62532,0.009 5.0594,1.05386 7.74703,2.35626 3.53519,1.71311 7.46627,5.62419 9.26321,9.21606 2.29674,4.59091 2.42907,5.85954 2.30883,22.13561 l -0.10676,14.4514 -0.96269,2.63788 c -1.17995,3.23318 -3.6446,6.91304 -6.05149,9.03519 -2.49545,2.20023 -6.82195,4.28007 -10.3439,4.97253 -2.64826,0.52068 -2.92396,0.65442 -3.24451,1.57395 -0.62096,1.78129 -2.17507,3.43589 -4.12182,4.38835 -1.65038,0.80745 -2.24491,0.91205 -4.52865,0.79672 -2.2326,-0.11274 -2.85674,-0.2929 -4.14055,-1.1952 -0.83143,-0.58435 -1.99237,-1.74633 -2.57987,-2.58218 l -1.06819,-1.51973 -0.0935,-33.20451 -0.0935,-33.20452 0.93464,-1.91033 c 0.91529,-1.87079 0.92595,-1.97238 0.51531,-4.90779 -0.49085,-3.50879 -1.75329,-7.71972 -3.36914,-11.237973 -1.10461,-2.40513 -1.20648,-2.51236 -2.55888,-2.69376 -2.47222,-0.33159 -4.06952,-1.37571 -7.68206,-5.02158 -7.89094,-7.96375 -14.25806,-12.06298 -23.25499,-14.97188 -14.13816,-4.57117 -28.58678,-3.41456 -41.85018,3.35009 -5.08354,2.59273 -8.84955,5.42949 -14.3032,10.77397 -4.70235,4.60823 -6.66359,5.92969 -8.82312,5.94497 -1.03118,0.007 -1.17892,0.1886 -2.52155,3.09455 -1.56645,3.390383 -2.67628,7.067253 -3.26371,10.812713 -0.3702,2.36039 -0.35514,2.46207 0.49668,3.35139 2.05797,2.1486 1.97423,0.61363 1.97423,36.18745 0,32.45248 -0.004,32.65653 -0.74246,34.22663 -0.82954,1.76476 -2.67093,3.54527 -4.42403,4.27776 -1.96157,0.8196 -5.35332,0.62346 -7.4715,-0.43208 z m 30.54146,-15.33892 c -0.77505,-0.45142 -0.79208,-1.84147 -0.0573,-4.67708 1.14053,-4.40143 1.6062,-7.96917 1.80324,-13.8155 0.22774,-6.75718 -0.16828,-11.27856 -1.5235,-17.39354 -0.48611,-2.19339 -0.83424,-4.33254 -0.77362,-4.75367 0.23413,-1.6266 2.58928,-1.84359 4.73688,-0.43643 1.65833,1.08658 3.89153,6.96345 4.94408,13.01078 0.76448,4.39225 0.49488,13.31076 -0.52495,17.36544 -0.93496,3.71728 -2.72607,8.21476 -3.69351,9.27442 -1.38061,1.51221 -3.63773,2.16738 -4.91132,1.42558 z m 65.88126,-0.11696 c -1.52768,-0.67898 -2.46139,-1.84951 -3.46989,-4.34994 -2.85397,-7.07606 -3.83512,-16.34753 -2.52499,-23.86036 0.62923,-3.60824 2.32198,-9.00559 3.43721,-10.95954 1.74134,-3.05097 6.26183,-3.81811 6.26183,-1.06266 0,0.446 -0.32773,2.19085 -0.7283,3.87746 -2.29857,9.6782 -2.28317,22.16341 0.0386,31.26737 0.88585,3.47356 0.88765,4.74937 0.007,5.22048 -0.89508,0.47903 -1.72751,0.44244 -3.0218,-0.13281 z M 326.253,165.17831 c -0.81759,-0.4762 -0.78396,-1.70924 0.14998,-5.50014 1.01074,-4.10259 1.08615,-12.01028 0.1525,-15.99105 -1.12694,-4.80488 -1.13492,-5.48726 -0.0723,-6.1835 1.23935,-0.81205 3.38941,-0.51657 4.96045,0.68171 3.38032,2.5783 4.73877,13.82672 2.56691,21.25478 -0.98239,3.35987 -1.64446,4.48647 -3.19057,5.4292 -1.21347,0.7399 -3.55512,0.89833 -4.56695,0.309 z m 21.42482,-0.20497 c -0.67252,-0.67251 -0.60356,-1.7006 0.38662,-5.764 0.89173,-3.65936 0.88064,-12.13718 -0.0208,-15.875 -1.08969,-4.51861 -1.09325,-5.14131 -0.0333,-5.83578 1.13278,-0.74223 3.41268,-0.52739 4.75866,0.44842 1.13094,0.8199 2.28519,3.0871 3.10197,6.09292 0.88695,3.26405 0.86644,11.23884 -0.0376,14.64027 -1.00313,3.77406 -1.8113,5.24588 -3.3577,6.115 -1.64056,0.92206 -3.9675,1.00847 -4.79779,0.17817 z m 41.11129,-0.16553 c -1.60716,-0.97973 -1.88066,-1.39157 -2.76034,-4.15657 -1.20268,-3.78024 -1.59498,-6.90796 -1.37369,-10.95202 0.21132,-3.86191 1.36137,-8.67208 2.48247,-10.38309 1.31004,-1.99937 4.37917,-2.93314 6.0476,-1.83994 1.09886,0.72 1.11276,1.3775 0.11391,5.38932 -1.02874,4.13187 -1.08643,12.32798 -0.11505,16.34383 1.01418,4.19278 1.07982,5.33911 0.33686,5.88238 -0.97123,0.71018 -3.33357,0.56844 -4.73176,-0.28391 z m 21.59817,0.0479 c -1.53058,-0.93321 -2.34306,-2.35329 -3.31155,-5.78808 -1.07013,-3.79522 -1.14302,-11.0983 -0.14823,-14.85133 1.37673,-5.19397 2.5531,-6.68333 5.60976,-7.10229 1.38421,-0.18972 1.70346,-0.10387 2.47212,0.66479 0.79048,0.79048 0.84761,1.02533 0.54709,2.24897 -1.3632,5.55051 -1.49097,6.53141 -1.4876,11.42048 0.003,4.14917 0.15844,5.74824 0.8238,8.46667 0.94616,3.86569 0.96274,4.5808 0.12051,5.19665 -0.9205,0.67309 -3.31997,0.54037 -4.6259,-0.25586 z"
       id="path179" /></g></svg>
